<?xml version="1.0" encoding="UTF-8"?>
<svg id="Livello_2" data-name="Livello 2" xmlns="http://www.w3.org/2000/svg" viewBox="0 0 622.62 118.66">
  <defs>
    <style>
      .cls-1 {
        fill: #fff;
      }
    </style>
  </defs>
  <g id="Livello_1-2" data-name="Livello 1">
    <g>
      <path d="M447.79,6.8c7.57-4.51,15.31-6.8,23.05-6.8,9.33,0,16.45,2.99,21.15,8.9l7.62,9.67,4.73-14.51c.43-1.32,1.65-2.2,3.03-2.2h25.74c1,0,1.94.47,2.54,1.27l9.68,12.28c.67.84.87,1.95.54,2.97l-1.37,4.2c3.66-4.51,7.73-8.48,12.2-11.86,9.39-7.11,19.09-10.71,28.84-10.71s16.45,2.99,21.15,8.9l9.68,12.28c1.56,1.94,2.86,4.23,3.86,6.79h0c3.82,9.75,3.04,22.83-2.31,38.86-5.05,15.15-12.75,27.67-22.87,37.2-10.29,9.7-21.33,14.62-32.83,14.62-8.6,0-15.48-2.69-20.48-8l-4.72-5.82-3.16,9.71c-.43,1.32-1.65,2.2-3.03,2.2h-45.09c-1,0-1.94-.47-2.54-1.27l-6.49-8.23c-9.24,7.58-19.05,11.41-29.19,11.41-8.6,0-15.48-2.69-20.48-8-.59-.62-1.16-1.29-1.69-1.98l-12.19-16.23-12.86,22.68c-.57,1-1.63,1.62-2.77,1.62h-31.34c-1,0-1.94-.47-2.54-1.26l-.47-.59c-.51,1.1-1.62,1.85-2.9,1.85h-28.22c-.98,0-1.92-.46-2.52-1.23l-8.54-10.83h-1.24s-5.09,10.29-5.09,10.29c-.54,1.1-1.64,1.78-2.86,1.78h-24.93s-.07,0-.11,0h-25.85c-1,0-1.94-.47-2.54-1.27,0,0-7.02-8.9-7.02-8.9-9.32,6.84-20.36,10.17-33.69,10.17h-48.15c-.98,0-1.92-.46-2.52-1.23l-8.54-10.83h-1.24s-5.09,10.29-5.09,10.29c-.54,1.1-1.64,1.78-2.86,1.78h-43.89c-1.01,0-1.96-.48-2.57-1.29l-5.78-7.33-2.09,6.42c-.43,1.32-1.65,2.21-3.04,2.21h-26.68c-1,0-1.95-.47-2.55-1.27l-9.68-12.28c-.67-.84-.87-1.95-.54-2.98l6.78-20.8h-4.99l-11.42,35.03c-.45,1.38-1.72,2.3-3.17,2.3H13.06c-1.05,0-2.04-.5-2.66-1.33L.72,103.13c-.69-.88-.9-2.03-.55-3.1L31.42,4.16c.45-1.38,1.72-2.3,3.17-2.3h46.26c1.05,0,2.04.5,2.66,1.33.01.02.03.03.04.05.02.02.03.04.05.06.02.02.03.04.05.06.02.02.03.04.05.06.02.02.03.04.05.06.02.02.03.04.05.06.02.02.03.04.05.06.02.02.03.04.05.06,0,0,.01.02.02.03.52-1.12,1.64-1.84,2.9-1.84h26.74c12.78,0,21.44,2.63,26.49,8.02.22.24.45.5.7.8.18.21,10.76,13.66,10.8,13.71l11.86-20.91c.57-1,1.63-1.62,2.78-1.62h32.03c1,0,1.94.47,2.55,1.27l8.1,10.27,3.04-9.33c.43-1.32,1.65-2.21,3.05-2.21h22.67c13.45,0,23.09,3.69,28.66,10.97l7.33,9.3,5.89-18.08c.43-1.31,1.65-2.2,3.03-2.2h25.85c1,0,1.94.47,2.54,1.27l8.75,11.1,6.31-10.78c.57-.98,1.63-1.59,2.77-1.59h32.03c1,0,1.94.47,2.55,1.27l.46.59c.51-1.11,1.62-1.86,2.9-1.86h27.28c.98,0,1.92.46,2.52,1.23l9.68,12.28c.19.23.35.49.46.76l6.18-12.5c.54-1.09,1.64-1.77,2.86-1.77h26.68c.99,0,1.93.47,2.53,1.25l2.91,3.7Z"/>
      <g>
        <path class="cls-1" d="M608.47,16.43c-3.7-9.45-11.41-14.24-22.92-14.24-9.26,0-18.52,3.45-27.51,10.26-12.04,9.13-21.06,22.48-26.79,39.68-2.99,8.98-4.56,16.96-4.66,23.72,0,.5,0,.99,0,1.48h-14.63c-.67,0-1.15-.66-.94-1.3l23.05-70.69c.21-.64-.27-1.3-.94-1.3h-25.74c-.43,0-.81.28-.94.68l-11.35,34.82c1.56-9.14,1.12-16.88-1.32-23.12-3.7-9.45-11.41-14.24-22.92-14.24-9.26,0-18.52,3.45-27.51,10.26-2.94,2.23-5.7,4.71-8.27,7.43l8.15-14.37c.37-.66-.1-1.48-.86-1.48h-26.68c-.38,0-.72.21-.89.55l-28.38,57.37c-.51,1.03-2.07.51-1.86-.62l10.41-56.13c.11-.61-.35-1.17-.97-1.17h-27.28c-.51,0-.93.38-.98.89l-10.22,96.18c-.06.58.4,1.09.98,1.09h31.34c.36,0,.69-.19.86-.5l27.55-48.58c-2.78,8.58-4.24,16.22-4.34,22.74-.1,6.85,1.31,12.65,4.18,17.25,4.61,7.31,11.92,11.01,21.73,11.01,10.92,0,21.46-4.72,31.32-14.02,6.97-6.56,12.76-14.6,17.3-23.98l-11.34,34.79c-.21.64.27,1.3.94,1.3h45.09c.43,0,.81-.28.94-.68l5.41-16.61c.69,3.05,1.79,5.79,3.3,8.2,4.61,7.31,11.92,11.01,21.73,11.01,10.92,0,21.46-4.72,31.32-14.02,9.86-9.28,17.36-21.5,22.3-36.3,5.18-15.53,5.97-28.1,2.34-37.37ZM462.48,53.39c-2.59,7.76-5.5,13.88-8.66,18.21-2.94,4.14-5.83,6.24-8.58,6.24-1.55,0-3.63-.6-3.86-5.83-.19-4.35,1.07-10.6,3.73-18.59,2.71-8.12,5.67-14.35,8.82-18.51,3.16-4.31,6.16-6.5,8.92-6.5,1.24,0,2.14.41,2.75,1.26,2.7,3.75-.21,14.97-3.12,23.72ZM577.19,53.39c-2.59,7.76-5.5,13.88-8.66,18.21-2.94,4.14-5.83,6.24-8.58,6.24-1.55,0-3.63-.6-3.86-5.83-.19-4.35,1.07-10.6,3.73-18.59,2.71-8.12,5.67-14.35,8.82-18.51,3.16-4.31,6.16-6.5,8.92-6.5,1.24,0,2.14.41,2.75,1.26,2.7,3.75-.21,14.97-3.12,23.72Z"/>
        <path class="cls-1" d="M360.78,4.05h-32.03c-.36,0-.69.19-.87.51l-41.32,70.61,22.76-69.82c.21-.64-.27-1.29-.94-1.29h-25.85c-.43,0-.81.28-.94.68l-11.84,36.33c.52-3.34.73-6.5.61-9.44-.25-6.48-2.05-12.13-5.35-16.79-5.03-7.16-14.25-10.79-27.4-10.79h-22.67c-.44,0-.82.29-.96.7l-21.87,67.11c2.76-25.97,6.4-60.16,7.09-66.69.06-.59-.4-1.1-.99-1.1h-32.03c-.36,0-.69.19-.87.51l-42.39,74.75c-.49.87-1.82.56-1.87-.44l-.82-16.43c-.02-.41.21-.79.58-.96,10.23-4.73,17.23-12.69,20.81-23.7,3.67-11.28,2.6-20.16-3.19-26.41-4.61-4.93-12.75-7.32-24.89-7.32h-26.74c-.44,0-.82.28-.96.69l-31.35,96.15c-.21.65.27,1.31.95,1.31h26.68c.43,0,.82-.28.95-.69l8.33-25.55c.34-1.05,1.89-.85,1.95.26l1.25,25.03c.03.53.47.95,1,.95h43.89c.38,0,.73-.22.89-.56l5.42-10.95c.17-.34.52-.56.89-.56h12.88c.62,0,1.1.57.98,1.18l-1.8,9.71c-.11.61.36,1.18.98,1.18h26.34s21.82,0,21.82,0c13.63,0,24.66-3.5,34.06-11.03,8.03-6.44,14.62-14.94,19.69-25.36l-11.44,35.09c-.21.64.27,1.29.94,1.29h25.85s.02,0,.04,0h25.01c.38,0,.73-.22.89-.56l5.42-10.95c.17-.34.52-.56.89-.56h12.88c.62,0,1.1.57.98,1.18l-1.8,9.71c-.11.61.36,1.18.98,1.18h28.22c.51,0,.94-.38.99-.89.97-9.16,9.14-86.01,10.22-96.16.06-.59-.4-1.1-.99-1.1ZM114.03,34.51c-.41,1.25-.53,1.65-.86,2.65-.44,1.37-1.14,3.51-1.78,5.47-.92,2.82-3.55,4.72-6.51,4.71-.98,0-1.95,0-2.72,0-.69,0-1.18-.67-.97-1.32l5.18-15.91c.13-.41.52-.69.95-.69.9,0,1.96,0,3.01,0,2.64,0,4.51,2.58,3.69,5.09ZM168.57,48.32l-3.27,17.68c-.09.47-.5.81-.98.81h-5.05c-.74,0-1.22-.77-.89-1.43l8.69-17.56c.41-.83,1.67-.41,1.5.5ZM237.37,56.15c-6.95,21.18-13.55,21.18-17.71,21.18-.69,0-1.18-.67-.97-1.32l14.88-45.89c.13-.41.52-.69.95-.69,3.9,0,12.21-2.13,2.85,26.73ZM331.13,48.31l-3.27,17.68c-.09.47-.5.81-.98.81h-5.05c-.74,0-1.22-.77-.89-1.43l8.69-17.56c.41-.83,1.67-.41,1.5.5Z"/>
        <path class="cls-1" d="M61.48,64.09l7.28-22.32c.24-.73-.31-1.49-1.08-1.49h-15.2c-.77,0-1.32-.75-1.08-1.49l2.8-8.59c.15-.47.59-.78,1.08-.78h18.06c.49,0,.93-.32,1.08-.78l7.53-23.1c.24-.73-.31-1.49-1.08-1.49h-46.26c-.49,0-.93.32-1.08.78L2.25,100.72c-.24.73.31,1.49,1.08,1.49h26.56c.49,0,.93-.32,1.08-.78l11.66-35.76c.15-.47.59-.78,1.08-.78h16.68c.49,0,.93-.32,1.08-.78Z"/>
      </g>
    </g>
  </g>
</svg>